<svg width="26" height="23" viewBox="0 0 26 23" fill="none" xmlns="http://www.w3.org/2000/svg">
<path d="M15.2083 6.16667V3.58333C15.2083 2.89819 14.9362 2.24111 14.4517 1.75664C13.9672 1.27217 13.3101 1 12.625 1H3.58333C2.89819 1 2.24111 1.27217 1.75664 1.75664C1.27217 2.24111 1 2.89819 1 3.58333V19.0833C1 19.7685 1.27217 20.4256 1.75664 20.91C2.24111 21.3945 2.89819 21.6667 3.58333 21.6667H12.625C13.3101 21.6667 13.9672 21.3945 14.4517 20.91C14.9362 20.4256 15.2083 19.7685 15.2083 19.0833V16.5" stroke="#EA1601" stroke-opacity="0.8" stroke-width="2" stroke-linecap="round" stroke-linejoin="round"/>
<path d="M6.16663 11.3334H24.25L20.375 7.45837M20.375 15.2084L24.25 11.3334" stroke="#EA1601" stroke-opacity="0.8" stroke-width="2" stroke-linecap="round" stroke-linejoin="round"/>
</svg>
