<svg width="23" height="24" viewBox="0 0 23 24" fill="none" xmlns="http://www.w3.org/2000/svg">
<path d="M12.2607 0C13.1682 0 13.9898 0.504 14.4436 1.248C14.6643 1.608 14.8115 2.052 14.7747 2.52C14.7502 2.88 14.8605 3.24 15.0567 3.576C15.6822 4.596 17.068 4.98 18.1471 4.404C19.3612 3.708 20.8942 4.128 21.5932 5.316L22.4148 6.732C23.1261 7.92 22.7337 9.444 21.5073 10.128C20.4649 10.74 20.097 12.096 20.7225 13.128C20.9187 13.452 21.1394 13.728 21.4828 13.896C21.912 14.124 22.2432 14.484 22.4762 14.844C22.9299 15.588 22.8931 16.5 22.4516 17.304L21.5932 18.744C21.1394 19.512 20.2933 19.992 19.4225 19.992C18.9933 19.992 18.515 19.872 18.1226 19.632C17.8038 19.428 17.4359 19.356 17.0434 19.356C15.8293 19.356 14.8115 20.352 14.7747 21.54C14.7747 22.92 13.6464 24 12.2361 24H10.5683C9.14574 24 8.0175 22.92 8.0175 21.54C7.99298 20.352 6.97511 19.356 5.76102 19.356C5.35633 19.356 4.98842 19.428 4.68183 19.632C4.2894 19.872 3.79886 19.992 3.38191 19.992C2.49893 19.992 1.65275 19.512 1.199 18.744L0.352824 17.304C-0.100925 16.524 -0.125452 15.588 0.328297 14.844C0.524513 14.484 0.892417 14.124 1.30938 13.896C1.65275 13.728 1.8735 13.452 2.08198 13.128C2.69515 12.096 2.32725 10.74 1.28485 10.128C0.0707635 9.444 -0.321668 7.92 0.377351 6.732L1.199 5.316C1.91029 4.128 3.43096 3.708 4.65731 4.404C5.72423 4.98 7.11001 4.596 7.73544 3.576C7.93166 3.24 8.04203 2.88 8.0175 2.52C7.99298 2.052 8.12788 1.608 8.36088 1.248C8.81463 0.504 9.63628 0.024 10.5315 0H12.2607ZM11.4145 8.616C9.48912 8.616 7.93166 10.128 7.93166 12.012C7.93166 13.896 9.48912 15.396 11.4145 15.396C13.3399 15.396 14.8605 13.896 14.8605 12.012C14.8605 10.128 13.3399 8.616 11.4145 8.616Z" fill="url(#paint0_linear_1615_4046)"/>
<defs>
<linearGradient id="paint0_linear_1615_4046" x1="3.48333" y1="5.02941" x2="24.7058" y2="10.6683" gradientUnits="userSpaceOnUse">
<stop stop-color="#1873DA"/>
<stop offset="1" stop-color="#0CB3E6"/>
</linearGradient>
</defs>
</svg>
