<svg width="399" height="458" viewBox="0 0 399 458" fill="none" xmlns="http://www.w3.org/2000/svg">
<path fill-rule="evenodd" clip-rule="evenodd" d="M107.623 60.0293H399V240.936C399 294.684 350.854 338.658 292.009 338.658C102.999 338.658 133.49 338.658 0.631592 338.658V157.751C0.631592 104.004 48.777 60.0293 107.623 60.0293Z" fill="url(#paint0_linear_875_3899)"/>
<path fill-rule="evenodd" clip-rule="evenodd" d="M53.874 360.74H138.795V409.37C138.795 436.117 114.837 458 85.5527 458H0.631592V409.37C0.631592 382.623 24.59 360.74 53.874 360.74Z" fill="url(#paint1_linear_875_3899)"/>
<path fill-rule="evenodd" clip-rule="evenodd" d="M107.623 60.0289H388.824L385.056 28.4634L95.3956 57.3095C36.8968 63.1351 -5.74632 111.617 0.631845 165.048V157.751C0.631845 106.862 43.7931 64.7335 98.3321 60.3965C101.395 60.1537 104.494 60.0289 107.623 60.0289Z" fill="#1AB5E5" fill-opacity="0.6"/>
<path fill-rule="evenodd" clip-rule="evenodd" d="M95.3954 57.3097L372.181 29.7459L364.65 0L90.5916 57.8885C92.1804 57.6631 93.782 57.4702 95.3954 57.3097Z" fill="#2685D9"/>
<defs>
<linearGradient id="paint0_linear_875_3899" x1="335" y1="86.5" x2="34.5" y2="319" gradientUnits="userSpaceOnUse">
<stop stop-color="#0071F2"/>
<stop offset="1" stop-color="#91C2FB"/>
</linearGradient>
<linearGradient id="paint1_linear_875_3899" x1="101" y1="361" x2="13.5" y2="444" gradientUnits="userSpaceOnUse">
<stop stop-color="#FF9A00"/>
<stop offset="1" stop-color="#FFDE6D"/>
</linearGradient>
</defs>
</svg>
